<?xml version="1.0" encoding="utf-8"?>
<!-- Generator: Adobe Illustrator 18.0.0, SVG Export Plug-In . SVG Version: 6.00 Build 0)  -->
<!DOCTYPE svg PUBLIC "-//W3C//DTD SVG 1.1//EN" "http://www.w3.org/Graphics/SVG/1.1/DTD/svg11.dtd">
<svg version="1.1" id="Calque_1" xmlns="http://www.w3.org/2000/svg" xmlns:xlink="http://www.w3.org/1999/xlink" x="0px" y="0px"
	 viewBox="0 60 61.63 11.1" enable-background="new 0 60 61.63 11.1" xml:space="preserve">
<g>
	<path fill="#4F4F4F" d="M13.09,63.24L13.09,63.24c0-1.07,0.82-1.94,1.94-1.94c0.56,0,0.95,0.16,1.26,0.41
		c0.08,0.06,0.17,0.17,0.17,0.35c0,0.25-0.21,0.47-0.47,0.47c-0.14,0-0.23-0.06-0.31-0.1c-0.19-0.14-0.39-0.23-0.66-0.23
		c-0.52,0-0.89,0.47-0.89,1.01v0.02c0,0.56,0.37,1.03,0.93,1.03c0.27,0,0.49-0.1,0.68-0.25c0.06-0.04,0.16-0.1,0.29-0.1
		c0.25,0,0.45,0.19,0.45,0.45c0,0.14-0.06,0.25-0.16,0.33c-0.31,0.29-0.7,0.47-1.3,0.47C13.91,65.16,13.09,64.31,13.09,63.24z"/>
	<path fill="#4F4F4F" d="M16.99,64.02L16.99,64.02c0-0.82,0.62-1.18,1.49-1.18c0.37,0,0.64,0.06,0.89,0.16v-0.08
		c0-0.43-0.27-0.68-0.8-0.68c-0.29,0-0.52,0.04-0.72,0.1c-0.06,0.02-0.1,0.02-0.16,0.02c-0.23,0-0.43-0.19-0.43-0.43
		c0-0.19,0.12-0.35,0.29-0.41c0.33-0.12,0.7-0.19,1.18-0.19c0.56,0,0.99,0.16,1.24,0.41c0.27,0.27,0.41,0.68,0.41,1.18v1.69
		c0,0.29-0.23,0.5-0.5,0.5c-0.31,0-0.5-0.21-0.5-0.43l0,0c-0.25,0.29-0.6,0.47-1.13,0.47C17.56,65.14,16.99,64.74,16.99,64.02z
		 M19.4,63.77v-0.19c-0.17-0.08-0.41-0.14-0.66-0.14c-0.45,0-0.72,0.17-0.72,0.5v0.02c0,0.29,0.23,0.45,0.56,0.45
		C19.07,64.43,19.4,64.15,19.4,63.77z"/>
	<path fill="#4F4F4F" d="M21.19,64.72c-0.12-0.08-0.19-0.19-0.19-0.35c0-0.23,0.17-0.41,0.41-0.41c0.08,0,0.16,0.02,0.21,0.06
		c0.35,0.21,0.7,0.33,0.99,0.33c0.31,0,0.45-0.12,0.45-0.27v-0.02c0-0.23-0.35-0.31-0.76-0.43c-0.52-0.16-1.11-0.39-1.11-1.11V62.5
		c0-0.76,0.6-1.16,1.36-1.16c0.39,0,0.78,0.1,1.15,0.29c0.16,0.08,0.25,0.21,0.25,0.39c0,0.23-0.19,0.41-0.43,0.41
		c-0.08,0-0.12-0.02-0.19-0.04c-0.29-0.14-0.58-0.23-0.8-0.23c-0.25,0-0.39,0.12-0.39,0.25v0.02c0,0.21,0.35,0.31,0.76,0.45
		c0.52,0.17,1.13,0.43,1.13,1.09v0.02c0,0.82-0.62,1.18-1.42,1.18C22.12,65.14,21.63,65.01,21.19,64.72z"/>
	<path fill="#4F4F4F" d="M24.74,60.52c0-0.29,0.23-0.52,0.52-0.52c0.29,0,0.52,0.23,0.52,0.52v1.38c0.23-0.31,0.54-0.6,1.09-0.6
		c0.8,0,1.26,0.52,1.26,1.38v1.9c0,0.29-0.23,0.52-0.52,0.52s-0.52-0.23-0.52-0.52v-1.57c0-0.5-0.23-0.76-0.64-0.76
		c-0.41,0-0.66,0.25-0.66,0.76v1.57c0,0.29-0.23,0.52-0.52,0.52s-0.52-0.23-0.52-0.52C24.74,64.58,24.74,60.52,24.74,60.52z"/>
	<path fill="#4F4F4F" d="M29.03,60.52c0-0.29,0.23-0.52,0.52-0.52c0.29,0,0.52,0.23,0.52,0.52v1.38c0.25-0.35,0.6-0.6,1.15-0.6
		c0.85,0,1.69,0.68,1.69,1.9v0.02c0,1.24-0.82,1.9-1.69,1.9c-0.56,0-0.91-0.25-1.15-0.54l0,0c0,0.29-0.23,0.52-0.52,0.52
		c-0.29,0-0.52-0.23-0.52-0.52V60.52z M31.86,63.22L31.86,63.22c0-0.62-0.41-1.03-0.91-1.03c-0.49,0-0.89,0.41-0.89,1.03v0.02
		c0,0.62,0.41,1.03,0.89,1.03C31.46,64.25,31.86,63.84,31.86,63.22z"/>
	<path fill="#4F4F4F" d="M33.47,64.02L33.47,64.02c0-0.82,0.62-1.18,1.49-1.18c0.37,0,0.64,0.06,0.89,0.16v-0.08
		c0-0.43-0.27-0.68-0.8-0.68c-0.29,0-0.52,0.04-0.72,0.1c-0.06,0.02-0.1,0.02-0.16,0.02c-0.23,0-0.43-0.19-0.43-0.43
		c0-0.19,0.12-0.35,0.29-0.41c0.33-0.12,0.68-0.19,1.18-0.19c0.56,0,0.99,0.16,1.24,0.41c0.27,0.27,0.41,0.68,0.41,1.18v1.69
		c0,0.29-0.23,0.5-0.5,0.5c-0.31,0-0.5-0.21-0.5-0.43l0,0c-0.25,0.29-0.6,0.47-1.13,0.47C34.04,65.14,33.47,64.74,33.47,64.02z
		 M35.88,63.77v-0.19c-0.17-0.08-0.41-0.14-0.66-0.14c-0.45,0-0.72,0.17-0.72,0.5v0.02c0,0.29,0.23,0.45,0.56,0.45
		C35.55,64.43,35.88,64.15,35.88,63.77z"/>
	<path fill="#4F4F4F" d="M37.59,63.24L37.59,63.24c0-1.07,0.82-1.94,1.94-1.94c0.56,0,0.95,0.16,1.26,0.41
		c0.08,0.06,0.17,0.17,0.17,0.35c0,0.25-0.21,0.47-0.47,0.47c-0.14,0-0.23-0.06-0.31-0.1c-0.19-0.14-0.39-0.23-0.66-0.23
		c-0.52,0-0.89,0.47-0.89,1.01v0.02c0,0.56,0.37,1.03,0.93,1.03c0.27,0,0.49-0.1,0.68-0.25c0.06-0.04,0.16-0.1,0.29-0.1
		c0.25,0,0.45,0.19,0.45,0.45c0,0.14-0.06,0.25-0.16,0.33c-0.31,0.29-0.7,0.47-1.3,0.47C38.41,65.16,37.59,64.31,37.59,63.24z"/>
	<path fill="#4F4F4F" d="M41.71,60.52c0-0.29,0.23-0.52,0.52-0.52s0.52,0.23,0.52,0.52v2.29l1.3-1.24c0.16-0.14,0.27-0.23,0.47-0.23
		c0.29,0,0.47,0.23,0.47,0.47c0,0.17-0.1,0.31-0.23,0.45l-0.83,0.72l0.99,1.34c0.1,0.12,0.14,0.21,0.14,0.33
		c0,0.29-0.23,0.47-0.49,0.47c-0.21,0-0.33-0.08-0.45-0.23l-0.91-1.26L42.77,64v0.6c0,0.29-0.23,0.52-0.52,0.52
		s-0.52-0.23-0.52-0.52v-4.08H41.71z"/>
	<path fill="#4F4F4F" d="M46.27,63.92c0.35,0,0.6,0.25,0.6,0.58v0.02c0,0.33-0.25,0.58-0.6,0.58c-0.35,0-0.6-0.25-0.6-0.58V64.5
		C45.67,64.17,45.92,63.92,46.27,63.92z"/>
	<path fill="#4F4F4F" d="M47.41,63.24L47.41,63.24c0-1.07,0.82-1.94,1.94-1.94c0.56,0,0.95,0.16,1.26,0.41
		c0.08,0.06,0.17,0.17,0.17,0.35c0,0.25-0.21,0.47-0.47,0.47c-0.14,0-0.23-0.06-0.31-0.1c-0.19-0.14-0.39-0.23-0.66-0.23
		c-0.52,0-0.89,0.47-0.89,1.01v0.02c0,0.56,0.37,1.03,0.93,1.03c0.27,0,0.49-0.1,0.68-0.25c0.06-0.04,0.16-0.1,0.29-0.1
		c0.25,0,0.45,0.19,0.45,0.45c0,0.14-0.06,0.25-0.16,0.33c-0.31,0.29-0.7,0.47-1.3,0.47C48.23,65.16,47.41,64.31,47.41,63.24z"/>
	<path fill="#4F4F4F" d="M51.24,63.24L51.24,63.24c0-1.07,0.85-1.94,2-1.94s2,0.85,2,1.9v0.02c0,1.07-0.85,1.92-2,1.92
		C52.09,65.16,51.24,64.31,51.24,63.24z M54.21,63.24L54.21,63.24c0-0.56-0.39-1.03-0.97-1.03c-0.6,0-0.95,0.47-0.95,1.01v0.02
		c0,0.54,0.39,1.03,0.97,1.03C53.84,64.25,54.21,63.79,54.21,63.24z"/>
	<path fill="#4F4F4F" d="M56.38,63.92c0.35,0,0.6,0.25,0.6,0.58v0.02c0,0.33-0.25,0.58-0.6,0.58c-0.35,0-0.6-0.25-0.6-0.58V64.5
		C55.78,64.17,56.03,63.92,56.38,63.92z"/>
	<path fill="#4F4F4F" d="M57.82,60.5c0-0.31,0.25-0.49,0.58-0.49c0.33,0,0.58,0.19,0.58,0.49v0.02c0,0.31-0.25,0.5-0.58,0.5
		C58.07,61.01,57.82,60.82,57.82,60.5L57.82,60.5z M57.87,61.86c0-0.29,0.23-0.52,0.52-0.52s0.52,0.23,0.52,0.52v2.74
		c0,0.29-0.23,0.52-0.52,0.52s-0.52-0.23-0.52-0.52V61.86z"/>
	<path fill="#4F4F4F" d="M59.95,60.52c0-0.29,0.23-0.52,0.52-0.52S61,60.23,61,60.52v4.06c0,0.29-0.23,0.52-0.52,0.52
		s-0.52-0.23-0.52-0.52V60.52z"/>
</g>
<g>
	<path fill="#5CBF78" d="M4.38,63.94c0.84,0,1.06-0.31,1.49-1.2c0.19-0.41,0.41-0.65,0.6-0.79c-0.38-1.03-1.35-1.73-2.48-1.73
		c-1.35,0-2.45,1.01-2.62,2.31c0.82-0.67,1.85-1.08,3.01-1.08c0.07,0,0.14,0.07,0.14,0.14s-0.07,0.14-0.14,0.14
		C1.97,61.73,0,63.7,0,66.11c0,1.49,0.75,2.81,1.9,3.61c-0.58-0.6-0.94-1.44-0.94-2.33C0.96,65.48,2.5,63.94,4.38,63.94z"/>
	<path fill="#5CBF78" d="M10.55,66.23c0-0.24-0.19-0.46-0.46-0.46H10H7.93c-0.05,0-0.07-0.02-0.1-0.05l-0.46-0.41
		c-0.07-0.05-0.07-0.14-0.02-0.22c0.05-0.07,0.14-0.07,0.22-0.02l0.41,0.36h1.03l1.32-0.7c-0.6-2.43-2.4-2.64-2.43-2.64l0,0
		c0,0,0,0-0.02,0c0,0,0,0-0.02,0c0,0,0,0-0.02,0c0,0,0,0-0.02,0l0,0l0,0l0,0l0,0l0,0c0,0,0,0,0-0.02c0,0,0,0,0-0.02c0,0,0,0,0-0.02
		c0,0,0,0,0-0.02c0,0,0,0,0-0.02l0,0v-0.43c0-0.14-0.12-0.26-0.26-0.26c-0.19-0.05-0.34,0.07-0.34,0.24v1.15
		c0,0.07-0.07,0.14-0.14,0.14c-0.07,0-0.14-0.07-0.14-0.14v-0.55c-0.19,0.02-0.48,0.14-0.79,0.77c-0.46,0.94-0.72,1.39-1.76,1.39
		c-1.71,0-3.13,1.39-3.13,3.13c0,1.66,1.32,3.03,2.96,3.1c0.05,0,0.1,0,0.17,0H7.5c0.34,0,0.6-0.26,0.6-0.6s-0.26-0.6-0.6-0.6H5.84
		c-0.07,0-0.14-0.07-0.14-0.14c0-0.48-0.38-0.87-0.87-0.87H3.56c-0.07,0-0.14-0.07-0.14-0.14s0.07-0.14,0.14-0.14h1.27
		c0.58,0,1.08,0.43,1.15,1.01h0.02c0.12-0.05,0.7-0.36,0.91-1.37l-1.42-1.23H4.74c-0.07,0-0.14-0.07-0.14-0.14s0.07-0.14,0.14-0.14
		h0.79c0.05,0,0.07,0.02,0.1,0.05l1.47,1.27l1.3-0.67c0.02,0,0.05-0.02,0.07-0.02h0.05l0,0h1.61
		C10.36,66.68,10.55,66.47,10.55,66.23z M8.85,63.13c0.19,0,0.34,0.14,0.34,0.34c0,0.19-0.14,0.34-0.34,0.34s-0.34-0.14-0.34-0.34
		C8.51,63.27,8.66,63.13,8.85,63.13z"/>
	<path fill="#FCDD00" d="M10.75,65.82c0.07,0.12,0.12,0.24,0.12,0.38c0,0.41-0.34,0.75-0.75,0.75H8.63c-0.07,0.19-0.1,0.38-0.1,0.6
		c0,0.99,0.82,1.8,1.8,1.8s1.8-0.82,1.8-1.8C12.12,66.73,11.54,66.04,10.75,65.82z"/>
</g>
<g>
	<path fill="#4F4F4F" d="M13.15,66.87c0.28-0.15,0.58-0.22,0.87-0.22c0.3,0,0.53,0.07,0.69,0.21s0.24,0.34,0.24,0.6
		c0,0.2-0.06,0.38-0.17,0.53c-0.06,0.07-0.18,0.19-0.37,0.36c-0.15,0.13-0.25,0.24-0.3,0.32c-0.05,0.09-0.07,0.2-0.07,0.34v0.07
		h-0.29v-0.12c0-0.18,0.03-0.32,0.08-0.43c0.05-0.11,0.15-0.23,0.3-0.36c0.21-0.17,0.33-0.31,0.39-0.39s0.08-0.19,0.08-0.31
		c0-0.15-0.05-0.27-0.15-0.35c-0.1-0.08-0.24-0.13-0.42-0.13c-0.12,0-0.24,0.01-0.35,0.04c-0.11,0.03-0.24,0.08-0.38,0.15
		L13.15,66.87z M13.9,69.45c0.09,0,0.15,0.03,0.2,0.08s0.07,0.13,0.07,0.23s-0.02,0.17-0.07,0.23c-0.05,0.05-0.11,0.08-0.2,0.08
		c-0.08,0-0.15-0.02-0.2-0.07s-0.07-0.13-0.07-0.23C13.63,69.55,13.72,69.45,13.9,69.45z"/>
	<path fill="#4F4F4F" d="M15.44,69.99v-2.92c0.35-0.02,0.68-0.03,1-0.03c0.27,0,0.49,0.04,0.68,0.13c0.19,0.09,0.32,0.24,0.4,0.44
		c0.04,0.1,0.06,0.22,0.06,0.36v2.03h-0.37v-2.03c0-0.4-0.27-0.6-0.81-0.6l-0.57,0.02v2.62H15.44z"/>
	<path fill="#4F4F4F" d="M19.73,69.92v0.08h-0.37v-0.08c0-0.11,0.02-0.26,0.07-0.45s0.09-0.32,0.11-0.4
		c0.04-0.17,0.1-0.36,0.17-0.59l0.32-1.1h-1.76v-0.29h2.14v0.29l-0.34,1.15c-0.04,0.14-0.07,0.25-0.1,0.34
		c-0.03,0.09-0.05,0.18-0.08,0.27c-0.03,0.09-0.05,0.17-0.06,0.24c-0.02,0.07-0.03,0.14-0.05,0.21
		C19.75,69.74,19.73,69.84,19.73,69.92z M18.64,71.1h-0.37v-2.85h0.37V71.1z"/>
	<path fill="#4F4F4F" d="M20.88,69.01v-1.93h0.37v1.54l-0.3,0.38H20.88z"/>
	<path fill="#4F4F4F" d="M21.95,70.02c-0.07,0-0.14-0.01-0.23-0.03v-0.31c0.11,0.01,0.17,0.02,0.18,0.02c0.21,0,0.32-0.13,0.32-0.38
		V67.4l-0.32,0.03v-0.32c0.42-0.05,0.79-0.07,1.1-0.07c0.27,0,0.49,0.04,0.68,0.13c0.19,0.09,0.32,0.24,0.4,0.44
		c0.04,0.1,0.06,0.22,0.06,0.36v2.03h-0.38v-2.03c0-0.4-0.27-0.6-0.8-0.6c-0.07,0-0.19,0-0.36,0.01v1.9c0,0.24-0.05,0.42-0.16,0.55
		C22.33,69.96,22.17,70.02,21.95,70.02z"/>
	<path fill="#4F4F4F" d="M28.04,67.08v0.95c0,0.12-0.01,0.23-0.02,0.32c-0.01,0.09-0.03,0.18-0.07,0.28
		c-0.07,0.2-0.21,0.34-0.43,0.43l0.56,0.93h-0.42l-0.71-1.21l-0.34-0.51c-0.06,0.02-0.1,0.04-0.13,0.07
		c-0.14,0.12-0.21,0.31-0.21,0.58v1.08h-0.37v-0.94c0-0.33,0.05-0.57,0.15-0.73c0.04-0.06,0.09-0.13,0.16-0.18
		c0.07-0.06,0.15-0.1,0.25-0.13l-0.56-0.92h0.42l0.67,1.13l0.38,0.58c0.08-0.04,0.13-0.09,0.17-0.14c0.04-0.05,0.07-0.11,0.09-0.2
		c0.02-0.08,0.04-0.18,0.04-0.29v-1.08H28.04z"/>
	<path fill="#4F4F4F" d="M28.83,67.08h1.53v0.29l-0.39,1.49l-0.23,1.13h-0.38l0.23-1.13l0.39-1.49h-1.53v-0.89h0.37V67.08z"/>
	<path fill="#4F4F4F" d="M32.48,69.46l0.03,0.05c-0.04,0.15-0.09,0.32-0.17,0.52c-0.08,0.2-0.15,0.38-0.23,0.56h-0.28
		c0.04-0.17,0.09-0.36,0.13-0.58c0.05-0.21,0.08-0.39,0.1-0.55H32.48z"/>
	<path fill="#4F4F4F" d="M32.98,68.08c0-0.17,0.03-0.32,0.1-0.45c0.06-0.14,0.15-0.25,0.25-0.33c0.11-0.08,0.22-0.15,0.35-0.19
		c0.13-0.04,0.27-0.07,0.41-0.07s0.29,0.03,0.42,0.09c0.13,0.06,0.25,0.15,0.35,0.27c0.1,0.12,0.18,0.27,0.24,0.47
		c0.06,0.2,0.09,0.42,0.09,0.67v2.56h-0.37v-2.56c0-0.33-0.05-0.6-0.15-0.81c-0.05-0.12-0.13-0.21-0.23-0.27
		c-0.1-0.06-0.21-0.1-0.34-0.1c-0.13,0-0.23,0.02-0.32,0.05c-0.09,0.03-0.16,0.07-0.22,0.12s-0.1,0.11-0.14,0.17
		c-0.07,0.12-0.1,0.25-0.1,0.38c0,0.2,0.04,0.35,0.14,0.46s0.24,0.17,0.43,0.21l0.1,0.02l-0.06,0.28l-0.09-0.01
		c-0.26-0.03-0.47-0.13-0.63-0.29C33.06,68.57,32.98,68.35,32.98,68.08z"/>
	<path fill="#4F4F4F" d="M36.88,67.04c0.35,0,0.63,0.12,0.83,0.37c0.2,0.25,0.3,0.62,0.3,1.13c0,0.2-0.02,0.39-0.06,0.56
		c-0.04,0.17-0.09,0.31-0.16,0.42c-0.07,0.12-0.15,0.21-0.25,0.29c-0.1,0.08-0.2,0.14-0.31,0.17s-0.23,0.05-0.36,0.05
		c-0.13,0-0.24-0.02-0.36-0.05s-0.21-0.09-0.31-0.17c-0.1-0.08-0.18-0.18-0.25-0.29c-0.07-0.11-0.12-0.26-0.16-0.42
		c-0.04-0.17-0.06-0.35-0.06-0.56c0-0.28,0.03-0.52,0.1-0.71c0.06-0.2,0.14-0.34,0.24-0.45l-0.29,0.02v-0.32
		C36.11,67.05,36.47,67.04,36.88,67.04z M36.22,67.88c-0.06,0.22-0.09,0.42-0.09,0.61c0,0.19,0.01,0.35,0.04,0.48
		c0.02,0.13,0.06,0.26,0.12,0.38c0.05,0.12,0.13,0.21,0.23,0.27s0.22,0.1,0.36,0.1c0.14,0,0.26-0.03,0.36-0.1s0.18-0.16,0.23-0.27
		c0.1-0.22,0.15-0.49,0.15-0.81c0-0.43-0.07-0.75-0.22-0.94c-0.05-0.07-0.13-0.13-0.22-0.17c-0.09-0.04-0.19-0.07-0.31-0.07l-0.4,0
		C36.37,67.49,36.28,67.66,36.22,67.88z"/>
	<path fill="#4F4F4F" d="M38.66,67.07c0.11-0.02,0.23-0.03,0.36-0.03s0.24,0.02,0.35,0.04c0.11,0.03,0.2,0.07,0.27,0.12
		c0.07,0.05,0.14,0.11,0.2,0.18c0.06,0.07,0.1,0.14,0.14,0.22s0.06,0.15,0.09,0.24c0.04,0.14,0.06,0.29,0.06,0.45v0.49
		c0,0.09-0.01,0.19-0.02,0.29s-0.04,0.19-0.06,0.27s-0.07,0.16-0.12,0.25c-0.06,0.09-0.12,0.17-0.2,0.23s-0.18,0.11-0.3,0.16
		c-0.12,0.04-0.25,0.06-0.39,0.06s-0.26-0.01-0.36-0.02c-0.1-0.01-0.18-0.03-0.22-0.04l-0.06-0.02v-0.34
		c0.2,0.06,0.41,0.09,0.65,0.09c0.09,0,0.17-0.01,0.25-0.04s0.14-0.06,0.18-0.1c0.05-0.04,0.09-0.09,0.13-0.15
		c0.04-0.06,0.07-0.12,0.09-0.17s0.04-0.12,0.05-0.18c0.02-0.09,0.03-0.19,0.03-0.3v-0.44c0-0.19-0.02-0.35-0.06-0.48
		c-0.02-0.06-0.04-0.12-0.08-0.18c-0.04-0.06-0.08-0.12-0.13-0.16c-0.05-0.04-0.11-0.08-0.19-0.11c-0.08-0.03-0.17-0.04-0.28-0.04
		s-0.22,0.01-0.33,0.03c-0.11,0.02-0.18,0.04-0.23,0.06l-0.07,0.03v-0.33c0.02-0.01,0.04-0.02,0.07-0.03
		C38.48,67.11,38.55,67.09,38.66,67.07z"/>
	<path fill="#4F4F4F" d="M41.91,67.07c0.11-0.02,0.23-0.03,0.36-0.03s0.24,0.02,0.35,0.04c0.11,0.03,0.2,0.07,0.27,0.12
		c0.07,0.05,0.14,0.11,0.2,0.18c0.06,0.07,0.1,0.14,0.14,0.22s0.06,0.15,0.09,0.24c0.04,0.14,0.06,0.29,0.06,0.45v2.81H43v-2.77
		c0-0.19-0.02-0.35-0.06-0.48c-0.02-0.06-0.04-0.12-0.08-0.18c-0.04-0.06-0.08-0.12-0.13-0.16c-0.05-0.04-0.11-0.08-0.19-0.11
		c-0.08-0.03-0.17-0.04-0.28-0.04s-0.22,0.01-0.33,0.03c-0.11,0.02-0.18,0.04-0.23,0.06l-0.07,0.03v-0.33
		c0.02-0.01,0.04-0.02,0.07-0.03C41.73,67.11,41.8,67.09,41.91,67.07z"/>
	<path fill="#4F4F4F" d="M44.25,67.08h1.53v0.29l-0.39,1.49l-0.23,1.13h-0.38l0.23-1.13l0.39-1.49h-1.53v-0.89h0.37V67.08z"/>
	<path fill="#4F4F4F" d="M47.47,69.99V67.1c0.26-0.04,0.6-0.06,1-0.06c0.75,0,1.13,0.26,1.13,0.79v2.16H47.47z M49.23,69.7v-1.81
		c0-0.09-0.02-0.18-0.05-0.24c-0.03-0.07-0.07-0.12-0.12-0.16c-0.05-0.04-0.11-0.07-0.19-0.09c-0.08-0.02-0.15-0.03-0.21-0.04
		c-0.07-0.01-0.14-0.01-0.23-0.01c-0.18,0-0.35,0.01-0.5,0.02l-0.08,0.01v2.32H49.23z"/>
	<path fill="#4F4F4F" d="M50.28,69.01v-1.93h0.37v1.54l-0.3,0.38H50.28z"/>
	<path fill="#4F4F4F" d="M51.07,67.05c0.21-0.01,0.4-0.02,0.57-0.02c0.17,0,0.3,0.01,0.42,0.03c0.11,0.02,0.21,0.05,0.31,0.1
		c0.1,0.04,0.18,0.1,0.24,0.17c0.14,0.15,0.21,0.36,0.21,0.62v2.03h-0.37v-2.03c0-0.4-0.27-0.6-0.81-0.6c-0.16,0-0.35,0-0.56,0.02
		V67.05z"/>
	<path fill="#4F4F4F" d="M53.49,69.01v-1.93h0.37v1.54l-0.3,0.38H53.49z"/>
	<path fill="#4F4F4F" d="M55.45,67.08v0.29c-0.01,0-0.02,0.01-0.04,0.02c-0.01,0.01-0.04,0.04-0.08,0.08
		c-0.04,0.04-0.07,0.1-0.1,0.16s-0.06,0.15-0.08,0.26c-0.02,0.11-0.04,0.24-0.04,0.37v1.72h-0.38v-1.72c0-0.11,0.01-0.21,0.04-0.31
		s0.06-0.18,0.1-0.25c0.08-0.14,0.15-0.24,0.21-0.29l0.04-0.04v-0.01h-0.7v-0.29H55.45z"/>
	<path fill="#4F4F4F" d="M55.92,69.99v-2.92c0.35-0.02,0.68-0.03,1-0.03c0.27,0,0.49,0.04,0.68,0.13c0.19,0.09,0.32,0.24,0.4,0.44
		c0.04,0.1,0.06,0.22,0.06,0.36v2.03h-0.37v-2.03c0-0.4-0.27-0.6-0.81-0.6l-0.57,0.02v2.62H55.92z"/>
	<path fill="#4F4F4F" d="M59.96,67.04c0.28,0,0.5,0.09,0.64,0.26c0.14,0.17,0.21,0.41,0.21,0.71v1.99h-0.99V69.7h0.62v-1.68
		c0-0.44-0.2-0.67-0.61-0.67c-0.07,0-0.14,0.01-0.21,0.04c-0.07,0.03-0.13,0.05-0.17,0.09c-0.1,0.08-0.17,0.14-0.21,0.2l-0.03,0.04
		L59,69.99h-0.38l0.21-2.24c0-0.01,0-0.02,0-0.05c0-0.03-0.01-0.1-0.03-0.21c-0.02-0.11-0.05-0.2-0.08-0.27l-0.06-0.14h0.38
		c0.04,0.07,0.08,0.17,0.1,0.31h0.02c0.08-0.09,0.17-0.17,0.28-0.23c0.06-0.03,0.13-0.06,0.22-0.08
		C59.76,67.05,59.86,67.04,59.96,67.04z"/>
</g>
</svg>
