<svg width="24" height="24" viewBox="0 0 24 24" fill="none" xmlns="http://www.w3.org/2000/svg">
<path d="M10.1816 4.15625H8.80859L10.6641 10.6875H6.35938L5.02344 8.90625H3.46484L4.35547 11.875L3.46484 14.8438H5.02344L6.35938 13.0625H10.6641L8.80859 19.5938H10.1816L13.9297 13.0625H18.2344C19.1992 13.0625 20.5352 12.3574 20.8691 11.875C20.5352 11.4297 19.1992 10.6875 18.2344 10.6875H13.9297L10.1816 4.15625ZM10.8867 2.375C11.1094 2.375 11.2949 2.52344 11.4062 2.70898L14.9688 8.90625H18.2344C19.8672 8.90625 22.6875 10.2422 22.6875 11.875C22.6875 13.5449 19.8672 14.8438 18.2344 14.8438H14.9688L11.4062 21.0781C11.2949 21.2637 11.0723 21.375 10.8867 21.375H7.25C6.8418 21.375 6.54492 21.0039 6.65625 20.6328L8.32617 14.8438H7.25L6.0625 16.4023C5.95117 16.5508 5.80273 16.625 5.61719 16.625H1.90625C1.49805 16.625 1.20117 16.291 1.3125 15.9199L2.5 11.875L1.3125 7.86719C1.20117 7.49609 1.49805 7.125 1.90625 7.125H5.61719C5.80273 7.125 5.95117 7.23633 6.0625 7.38477L7.25 8.90625H8.32617L6.65625 3.1543C6.54492 2.7832 6.8418 2.375 7.25 2.375H10.8867Z" fill="#2A2A2A"/>
</svg>
